<?xml version="1.0" standalone="no"?><!DOCTYPE svg PUBLIC "-//W3C//DTD SVG 1.1//EN" "http://www.w3.org/Graphics/SVG/1.1/DTD/svg11.dtd"><svg t="1530085630855" class="icon" style="" viewBox="0 0 1024 1024" version="1.1" xmlns="http://www.w3.org/2000/svg" p-id="7446" xmlns:xlink="http://www.w3.org/1999/xlink" width="200" height="200"><defs><style type="text/css"></style></defs><path d="M511.699001 234.779541m-119.195768 0a119.195767 119.195767 0 1 0 238.391535 0 119.195767 119.195767 0 1 0-238.391535 0Z" fill="#F4E829" p-id="7447"></path><path d="M511.699001 372.637272c-75.851852 0-137.255732-61.40388-137.255732-137.255732 0-75.851852 61.40388-137.255732 137.255732-137.255732 75.851852 0 137.255732 61.40388 137.255732 137.255732 0.601999 75.249853-61.40388 137.255732-137.255732 137.255732z m0-238.993533c-55.985891 0-101.135802 45.751911-101.135803 101.135802 0 55.985891 45.751911 101.135802 101.135803 101.135803 55.985891 0 101.135802-45.751911 101.135802-101.135803 0.601999-55.985891-45.149912-101.135802-101.135802-101.135802z" fill="#3F285E" p-id="7448"></path><path d="M332.90535 729.622575v-204.6796c0-93.911817 77.05585-170.365667 170.365667-170.365668h16.855967c93.911817 0 170.365667 77.05585 170.365667 170.365668v204.6796" fill="#F4E829" p-id="7449"></path><path d="M709.154615 729.622575h-36.11993v-204.6796c0-84.279835-68.627866-152.305703-152.305702-152.305703h-16.855967c-84.279835 0-152.305703 68.627866-152.305703 152.305703v204.6796h-36.119929v-204.6796c0-104.145797 84.881834-188.425632 188.425632-188.425632h16.855967c104.145797 0 188.425632 84.881834 188.425632 188.425632v204.6796z" fill="#3F285E" p-id="7450"></path><path d="M715.776602 813.300412H308.223398c-18.661964 0-34.313933-15.651969-34.313933-34.313933v-15.049971c0-18.661964 15.651969-34.313933 34.313933-34.313933h407.553204c18.661964 0 34.313933 15.651969 34.313933 34.313933v15.049971c-0.601999 18.661964-15.651969 34.313933-34.313933 34.313933z" fill="#F4E829" p-id="7451"></path><path d="M715.776602 831.360376H308.223398c-28.895944 0-52.373898-23.477954-52.373898-52.373897v-15.049971c0-28.895944 23.477954-52.373898 52.373898-52.373898h407.553204c28.895944 0 52.373898 23.477954 52.373898 52.373898v15.049971c-0.601999 28.895944-23.477954 52.373898-52.373898 52.373897z m-407.553204-83.677836c-9.029982 0-16.253968 7.223986-16.253968 16.253968v15.049971c0 9.029982 7.223986 16.253968 16.253968 16.253968h407.553204c9.029982 0 16.253968-7.223986 16.253968-16.253968v-15.049971c0-9.029982-7.223986-16.253968-16.253968-16.253968H308.223398z" fill="#3F285E" p-id="7452"></path><path d="M447.285126 469.559083m-42.741916 0a42.741917 42.741917 0 1 0 85.483833 0 42.741917 42.741917 0 1 0-85.483833 0Z" fill="#FFFFFF" p-id="7453"></path><path d="M562.266902 729.622575l127.021752-126.419753" fill="#F4E829" p-id="7454"></path><path d="M676.755038 590.368207l25.53679 25.53679-126.847172 126.853192-25.54281-25.54281z" fill="#3F285E" p-id="7455"></path><path d="M447.285126 726.010582l240.197531-240.197531" fill="#F4E829" p-id="7456"></path><path d="M674.419283 473.189136l25.53679 25.54281-240.077131 240.077131-25.54281-25.53679z" fill="#3F285E" p-id="7457"></path></svg>