<?xml version="1.0" standalone="no"?><!DOCTYPE svg PUBLIC "-//W3C//DTD SVG 1.1//EN" "http://www.w3.org/Graphics/SVG/1.1/DTD/svg11.dtd"><svg t="1530085584412" class="icon" style="" viewBox="0 0 1024 1024" version="1.1" xmlns="http://www.w3.org/2000/svg" p-id="5246" xmlns:xlink="http://www.w3.org/1999/xlink" width="200" height="200"><defs><style type="text/css"></style></defs><path d="M545.8430333 247.98095157c-4.33885041-3.9049654-8.89464336-7.37604575-13.66737884-10.63018354 68.11995169 70.28937692 72.67574463 182.44866042 7.37604574 257.94465784s-176.59121234 87.86172112-256.20911765 30.58889548c3.9049654 4.1219079 8.24381582 8.02687329 12.58266626 11.93183867 80.05179036 68.98772176 200.88877471 60.09307842 269.87649648-19.95871195s60.09307842-200.67183221-19.95871199-269.8764965z" fill="#544535" p-id="5247"></path><path d="M526.53514892 231.92720502c11.93183867 61.177791-3.25413782 127.12831749-47.07652712 178.10980998-64.21498627 74.41128479-169.2151666 93.06834163-253.38886486 50.98149248 10.84712607 20.17565446 25.38227498 38.6157688 43.82238931 54.45257286 80.05179036 68.98772176 200.88877471 60.09307842 269.87649646-19.95871193 66.81829654-77.66542262 60.31002093-193.7296715-13.23349379-263.58516339z" fill="#D8B179" p-id="5248"></path><path d="M275.53265177 183.76596528c-3.68802286 0-7.59298826 0.21694254-11.28101109 0.43388505 63.1302737 5.64050553 112.37622602 58.57448076 112.37622604 123.22335208 0 64.43192884-49.46289483 117.36590402-112.37622604 123.22335211 3.68802286 0.43388503 7.37604575 0.43388503 11.28101109 0.43388504 68.3368942 0 123.65723714-55.32034291 123.65723715-123.65723715s-55.32034291-123.65723714-123.65723715-123.65723713z" fill="#892929" p-id="5249"></path><path d="M253.18757206 307.42320241m-123.65723709 0a123.65723714 123.65723714 0 1 0 247.31447428 0 123.65723714 123.65723714 0 1 0-247.31447428 0Z" fill="#D63737" p-id="5250"></path><path d="M262.29915798 158.16674777h-0.86777007c-3.9049654 0-7.15910319-3.25413782-7.15910322-7.1591032v-28.41947029c0-3.9049654 3.25413782-7.15910319 7.15910322-7.15910322h0.86777007c3.9049654 0 7.15910319 3.25413782 7.15910321 7.15910322v28.41947029c0 3.9049654-3.25413782 7.15910319-7.15910321 7.1591032zM262.29915798 499.85121882h-0.86777007c-3.9049654 0-7.15910319-3.25413782-7.15910322-7.15910321V464.27264531c0-3.9049654 3.25413782-7.15910319 7.15910322-7.1591032h0.86777007c3.9049654 0 7.15910319 3.25413782 7.15910321 7.1591032v28.20252777c0 4.1219079-3.25413782 7.37604575-7.15910321 7.37604574zM367.73322333 202.20607958l-0.65082752-0.65082756a7.20249171 7.20249171 0 0 1 0-10.19629847l20.17565445-20.17565451c2.82025277-2.82025277 7.37604575-2.82025277 10.19629848 0l0.6508276 0.65082757c2.82025277 2.82025277 2.82025277 7.37604575 0 10.19629851l-20.17565449 20.17565446a7.20249171 7.20249171 0 0 1-10.19629852 0zM126.27619713 443.6631058l-0.65082754-0.65082756a7.20249171 7.20249171 0 0 1 0-10.19629851l20.17565447-20.17565447c2.82025277-2.82025277 7.37604575-2.82025277 10.19629851 0l0.65082754 0.65082753c2.82025277 2.82025277 2.82025277 7.37604575 0 10.19629851l-20.17565449 20.1756545a7.20249171 7.20249171 0 0 1-10.19629849 0zM156.64815011 201.55525202l-0.65082754 0.65082756a7.20249171 7.20249171 0 0 1-10.19629851 0l-20.17565447-20.17565446a7.20249171 7.20249171 0 0 1 0-10.19629851l0.65082754-0.65082757c2.82025277-2.82025277 7.37604575-2.82025277 10.19629849 0l20.17565449 20.17565451c2.82025277 2.82025277 2.82025277 7.37604575 0 10.19629847zM398.10517634 443.01227824l-0.6508276 0.65082756a7.20249171 7.20249171 0 0 1-10.19629848 0l-20.17565445-20.1756545a7.20249171 7.20249171 0 0 1 0-10.19629851l0.65082752-0.65082753c2.82025277-2.82025277 7.37604575-2.82025277 10.19629852 0l20.17565449 20.17565447c2.82025277 2.82025277 2.82025277 7.37604575 0 10.19629851z" fill="#D63737" p-id="5251"></path><path d="M411.12172761 307.85708746v-0.86777009c0-3.9049654 3.25413782-7.15910319 7.1591032-7.15910322H446.91724359c3.9049654 0 7.15910319 3.25413782 7.15910325 7.15910322v0.86777009c0 3.9049654-3.25413782 7.15910319-7.15910325 7.15910321h-28.41947026c-4.1219079 0.21694254-7.37604575-3.03719531-7.37604572-7.15910321zM69.43725655 307.85708746v-0.86777009c0-3.9049654 3.25413782-7.15910319 7.15910323-7.15910322h28.41947028c3.9049654 0 7.15910319 3.25413782 7.15910318 7.15910322v0.86777009c0 3.9049654-3.25413782 7.15910319-7.15910318 7.15910321h-28.41947028c-3.9049654 0.21694254-7.15910319-3.03719531-7.15910323-7.15910321z" fill="#D63737" p-id="5252"></path><path d="M777.97153111 503.75618418l77.01459507-100.8782724-126.69443244 0.21694255-72.02491707-104.56629528-9.11158592 27.76864272 9.11158592-28.20252778-25.59921751 3.68802287 16.48763159 24.51450491-30.15501043 92.85139909-121.48781191 36.01245854 102.61381255 74.62822736-3.25413783 126.91137496 102.61381258-74.62822736 119.5353292 42.30379166z" fill="#544535" p-id="5253"></path><path d="M630.66755916 302.21658192l71.80797456 104.56629526h126.91137496l-77.01459507 100.66132987 39.04965386 120.62004184-119.53532928-42.30379163-102.61381255 74.62822729 3.25413781-126.91137495-102.61381258-74.41128481 121.48781192-36.22940106z" fill="#FFFFFF" p-id="5254"></path><path d="M483.79747222 264.46858318l5.20662051-11.93183863-12.5826662 3.03719529-9.76241347-8.6777009-0.21694252 2.82025283 0.21694252-3.0371953-2.60331027 1.0847126 2.38636775 2.16942522-0.86777009 9.97935594-11.49795361 6.50827567 12.14878115 4.98967803 2.82025279 12.7996087 8.46075833-9.97935597 13.01655129 1.51859765z" fill="#544535" p-id="5255"></path><path d="M464.05570279 247.76400907l9.76241346 8.89464336 12.79960877-3.03719531-5.42356306 11.9318387 6.94216071 11.06406859-13.01655127-1.30165515-8.67770086 9.97935598-2.60331026-12.79960875-12.14878121-4.98967798 11.28101112-6.72521817z" fill="#FFFFFF" p-id="5256"></path><path d="M632.40309934 185.9353905l13.4504363-19.95871195-23.86367734 1.30165511-14.75209144-18.87399935-1.30165512 5.20662052 1.30165512-5.42356305-4.77273549 1.0847126 3.47108037 4.33885045-4.77273547 17.78928672-22.56202224 8.02687331 19.95871195 13.23349379 0.65082758 23.86367733 18.65705683-15.1859765 22.99590726 6.9421607z" fill="#544535" p-id="5257"></path><path d="M602.46503137 149.27210438l14.75209145 19.09094189 23.86367738-1.30165512-13.45043637 19.74176943 8.46075836 22.34507968-22.99590724-6.72521817-18.65705689 14.96903401-0.65082754-23.86367736-19.95871193-13.01655126 22.56202218-8.0268733z" fill="#D63737" p-id="5258"></path><path d="M732.41360163 316.9686734l8.02687329-11.71489619-14.10126388 0.65082754-8.67770084-11.28101109-0.86777009 3.2541378 0.86777009-3.2541378-2.82025277 0.65082757 1.95248268 2.60331023-2.82025278 10.63018358-13.23349379 4.55579294 11.71489613 7.80993077 0.43388504 14.10126385 11.06406861-8.89464334 13.66737883 4.12190789z" fill="#544535" p-id="5259"></path><path d="M714.84125743 295.27442123l8.67770084 11.2810111 14.10126388-0.86777008-8.02687331 11.71489615 5.20662056 13.2334938-13.66737885-3.90496537-11.06406861 8.89464337-0.43388507-14.10126392-11.93183864-7.80993076 13.45043632-4.77273545z" fill="#D8B179" p-id="5260"></path><path d="M833.72575911 360.14023509l12.58266622-18.22317179-22.12813717 1.08471263-13.45043633-17.35540171-1.30165515 4.77273545 1.30165515-4.98967799-4.55579295 0.86777009 3.2541378 4.1219079-4.55579293 16.48763162-20.60953952 7.37604572 18.44011429 11.93183868 0.65082757 22.12813717 17.13845918-13.88432137 21.2603671 6.29133314z" fill="#544535" p-id="5261"></path><path d="M806.17405888 326.51414429l13.66737887 17.3554017 21.91119462-1.08471259-12.36572369 18.22317178 7.80993074 20.60953951-21.26036708-6.29133311-17.13845921 13.88432135-0.43388502-21.91119465-18.65705682-12.14878116 20.82648204-7.37604574z" fill="#D8B179" p-id="5262"></path><path d="M101.32780717 500.93593142h678.37926412V909.00481397H101.32780717z" fill="#EEC887" p-id="5263"></path><path d="M779.70707129 500.93593142H954.56274345V909.00481397h-174.85567216z" fill="#68553A" p-id="5264"></path><path d="M591.83484782 713.75654479c-0.43388503-70.07243436-54.45257283-127.99608758-123.00640956-134.50436319v-8.89464337c0-7.15910319-5.85744807-13.01655127-13.01655127-13.01655129s-13.01655127 5.85744807-13.01655128 13.01655129v8.89464337c-68.98772176 6.72521815-123.00640958 64.86581386-123.00640957 135.37213328 0 3.47108034 1.30165514 6.72521815 3.90496539 9.32852844 2.38636775 2.38636775 5.85744807 3.9049654 9.3285284 3.90496538H442.57839316v69.63854931c0 15.83680407-12.58266623 28.6364128-27.98558521 28.63641285-15.40291903 0-27.76864271-12.79960877-27.76864274-28.63641285 0-7.15910319-5.85744807-13.01655127-13.01655129-13.01655128s-13.01655127 5.85744807-13.01655127 13.01655128c0 30.15501044 24.29756238 54.88645789 54.01868781 54.8864579 29.93806795 0 54.01868783-24.5145049 54.0186878-54.8864579v-0.43388502-69.20466429h109.98985828c3.68802286 0 7.15910319-1.51859766 9.54547096-4.12190791 2.38636775-2.82025277 3.68802286-6.29133311 3.47108032-9.979356z m0 0" fill="#D63737" p-id="5265"></path></svg>